<?xml version="1.0" encoding="utf-8"?>
<!-- Generator: $$$/GeneralStr/196=Adobe Illustrator 27.6.0, SVG Export Plug-In . SVG Version: 6.00 Build 0)  -->
<svg version="1.1" id="Ebene_1" xmlns="http://www.w3.org/2000/svg" xmlns:xlink="http://www.w3.org/1999/xlink" x="0px" y="0px"
	 viewBox="0 0 1643.1 533.4" style="enable-background:new 0 0 1643.1 533.4;" xml:space="preserve">
<style type="text/css">
	.st0{fill:#040B1A;}
</style>
<g>
	<g transform="translate(502.355429, 451.745883)">
		<g>
			<path class="st0" d="M180.5-121.8c-7.5,0-14.1-1.6-19.8-4.8c-5.6-3.2-10.7-8.2-15.3-15.2v16h-30v-159.6H146v56.4
				c3.8-6.1,8.7-10.7,14.6-13.9s12.6-4.8,20.2-4.8c9.3,0,17.7,2.7,25.1,8c7.4,5.3,13.1,12.8,17.2,22.5s6.1,20.7,6.1,33
				c0,12.3-2,23.2-6.1,32.6c-4.1,9.5-9.8,16.8-17.2,22C198.6-124.4,190.1-121.8,180.5-121.8z M171.8-148.9c8.4,0,14.9-3.1,19.4-9.3
				s6.8-15.3,6.8-27.3c0-10.8-2.3-19.3-6.9-25.5s-10.8-9.3-18.6-9.3c-8.4,0-14.9,3-19.5,9.1c-4.6,6.1-6.9,14.6-6.9,25.7
				c0,12,2.2,21.1,6.5,27.3C157-152,163.4-148.9,171.8-148.9z"/>
		</g>
	</g>
</g>
<g>
	<g transform="translate(597.530892, 451.745883)">
		<g>
			<path class="st0" d="M147.6-285.4h31.5v159.5h-31.5V-285.4z"/>
		</g>
	</g>
</g>
<g>
	<g transform="translate(636.465549, 451.745883)">
		<g>
			<path class="st0" d="M189-121.6c-11.4,0-20.2-3.2-26.4-9.8c-6.2-6.5-9.3-15.8-9.3-27.8c0-11.1,3.1-19.5,9.3-25.4
				c6.2-5.8,16.4-9.9,30.6-12.1l12.6-1.8c13.5-1.5,20.2-5.3,20.2-11.5c0-4.7-1.5-8.1-4.4-10.2c-3-2.1-7.9-3.1-14.9-3.1
				c-6.4,0-11.2,1.3-14.6,3.8s-5.1,6.1-5.1,10.9v1.8h-29.5v-2.2c0-12.1,4.2-21.6,12.8-28.5c8.6-6.9,20.3-10.3,35.4-10.3
				c16.4,0,29,2.8,37.8,8.5c8.8,5.7,13.2,13.9,13.2,24.8v67c0,4.7,0.5,8.4,1.5,10.9s2.7,4.4,5.1,5.5v5.3h-32.8
				c-2.2-4.6-3.4-9.5-3.6-14.6c-4,6.2-9.2,10.9-15.6,14.1C204.8-123.2,197.4-121.6,189-121.6z M199-145.8c8.6,0,15.3-2.4,20.2-7.2
				c4.9-4.8,7.3-11.3,7.3-19.6v-11.1c-3.6,1.6-9.3,3.4-17.3,5.3c-5.3,1.2-8.9,2.1-10.9,2.7c-5.5,1.6-9.3,3.6-11.5,6
				c-2.2,2.4-3.3,5.6-3.3,9.8c0,4.3,1.4,7.7,4.2,10.3C190.5-147.1,194.2-145.8,199-145.8z"/>
		</g>
	</g>
</g>
<g>
	<g transform="translate(723.154966, 451.745883)">
		<g>
			<path class="st0" d="M226.8-122.7c-25.9,0-38.8-13.5-38.8-40.6v-80.4h31.5v71.2c0,8.4,1.4,14.4,4.2,18c2.8,3.6,7.5,5.3,14,5.3
				c7.4,0,13.3-2.2,17.6-6.6c4.4-4.4,6.6-10.5,6.6-18.2v-69.7h31.5v117.8h-30.8v-14C253.7-128.4,241.8-122.7,226.8-122.7z"/>
		</g>
	</g>
</g>
<g>
	<g transform="translate(815.668166, 451.745883)">
		<g>
			<path class="st0" d="M268.7-121.8c-11.2,0-21.1-2.6-29.4-7.8c-8.4-5.2-14.8-12.6-19.3-22.2c-4.5-9.6-6.8-20.9-6.8-33.7
				c0-12.7,2.2-23.8,6.6-33.2c4.4-9.4,10.8-16.6,19.1-21.6c8.3-5,18.1-7.5,29.3-7.5c18.1,0,32,5.5,41.8,16.4
				c9.8,10.9,14.8,26.6,14.8,46.8v4.9c0,1.5-0.1,2.6-0.2,3.3h-78.8c0.9,18.6,9,28,24.4,28c5.3,0,9.7-1.1,13.2-3.2
				c3.5-2.2,6.2-5.4,8.3-9.9h31.5c-3.3,12.4-9.7,22.2-19.3,29.2C294.4-125.3,282.6-121.8,268.7-121.8z M292.2-197.1
				c-0.8-16.3-8.5-24.4-23.3-24.4c-6.8,0-12.2,2.1-16.1,6.2c-3.9,4.1-6.2,10.2-7,18.2H292.2z"/>
		</g>
	</g>
</g>
<g>
	<g transform="translate(903.688754, 451.745883)">
		<g>
			<path class="st0" d="M248.5-243.7h29.3v20.2c4.2-8.1,9-14.1,14.4-17.9c5.5-3.8,12-5.7,19.5-5.7h2.9c0.4,0.1,1,0.2,1.8,0.2v32H306
				c-8.6,0-15.1,2.3-19.4,6.8c-4.4,4.5-6.5,11.1-6.5,19.9v62.4h-31.5L248.5-243.7L248.5-243.7z"/>
		</g>
	</g>
</g>
<g>
	<g transform="translate(960.760231, 451.745883)">
		<g>
			<path class="st0" d="M268.2-243.7h30v16c4.6-6.9,9.7-12,15.3-15.2c5.6-3.2,12.2-4.8,19.8-4.8c9.6,0,18.1,2.6,25.5,7.8
				s13.1,12.5,17.2,22s6.1,20.3,6.1,32.6s-2,23.3-6.1,33c-4.1,9.7-9.8,17.2-17.2,22.5c-7.4,5.3-15.7,8-25.1,8
				c-7.5,0-14.3-1.6-20.2-4.8c-5.9-3.2-10.8-7.8-14.6-13.9v61.9h-30.6L268.2-243.7L268.2-243.7z M325.3-149.1c7.8,0,14-3.1,18.6-9.3
				s6.9-14.7,6.9-25.5c0-11.8-2.3-20.9-6.8-27.2c-4.5-6.3-11-9.4-19.4-9.4s-14.8,3.1-19.2,9.3c-4.4,6.2-6.5,15.3-6.5,27.3
				c0,11.1,2.3,19.7,6.9,25.8C310.3-152.1,316.8-149.1,325.3-149.1z"/>
		</g>
	</g>
</g>
<g>
	<g transform="translate(1055.935684, 451.745883)">
		<g>
			<path class="st0" d="M304.9-221.5H288v-22.2h16.9v-10.8c0-10.9,2.8-19,8.5-24.2c5.7-5.2,14.6-7.8,26.7-7.8
				c6.4,0,11.4,0.2,15.1,0.7v25.1H347c-4.7,0-7.8,0.6-9.3,1.8s-2.2,3.5-2.2,7.1v8.2h19.8v22.2h-19.5v95.6H305v-95.7H304.9z"/>
		</g>
	</g>
</g>
<g>
	<g transform="translate(1103.023611, 451.745883)">
		<g>
			<path class="st0" d="M344.5-121.6c-11.4,0-20.2-3.2-26.4-9.8c-6.2-6.5-9.3-15.8-9.3-27.8c0-11.1,3.1-19.5,9.3-25.4
				c6.2-5.8,16.4-9.9,30.6-12.1l12.6-1.8c13.5-1.5,20.2-5.3,20.2-11.5c0-4.7-1.5-8.1-4.4-10.2c-3-2.1-7.9-3.1-14.9-3.1
				c-6.4,0-11.2,1.3-14.6,3.8s-5.1,6.1-5.1,10.9v1.8H313v-2.2c0-12.1,4.2-21.6,12.8-28.5c8.6-6.9,20.3-10.3,35.4-10.3
				c16.4,0,29,2.8,37.8,8.5c8.8,5.7,13.2,13.9,13.2,24.8v67c0,4.7,0.5,8.4,1.5,10.9s2.7,4.4,5.1,5.5v5.3H386
				c-2.2-4.6-3.4-9.5-3.6-14.6c-4,6.2-9.2,10.9-15.6,14.1C360.4-123.2,352.9-121.6,344.5-121.6z M354.5-145.8
				c8.6,0,15.3-2.4,20.2-7.2c4.9-4.8,7.3-11.3,7.3-19.6v-11.1c-3.6,1.6-9.3,3.4-17.3,5.3c-5.3,1.2-8.9,2.1-10.9,2.7
				c-5.5,1.6-9.3,3.6-11.5,6c-2.2,2.4-3.3,5.6-3.3,9.8c0,4.3,1.4,7.7,4.2,10.3C346-147.1,349.7-145.8,354.5-145.8z"/>
		</g>
	</g>
</g>
<g>
	<g transform="translate(1189.713051, 451.745883)">
		<g>
			<path class="st0" d="M382.3-122.7c-25.9,0-38.8-13.5-38.8-40.6v-80.4H375v71.2c0,8.4,1.4,14.4,4.2,18c2.8,3.6,7.5,5.3,14,5.3
				c7.4,0,13.3-2.2,17.6-6.6c4.4-4.4,6.6-10.5,6.6-18.2v-69.7h31.5v117.8h-30.8v-14C409.3-128.4,397.4-122.7,382.3-122.7z"/>
		</g>
	</g>
</g>
<path class="st0" d="M192.8,43.8"/>
<g>
	<path class="st0" d="M316.3,317.6c10.7,8.4,15.6,11.3,23.4,11.3c0.2,0-1-11.3-1.1-11.7c-1.3-14.1-7.5-28.2-7.5-28.2
		c-2-4.1-6-13.2-6.8-14.6c-3.7-6.7-7.6-14.4-15.1-20.7c-5.7-4.8-14.2-9.3-15.3-2.3c-0.5,3.6-0.5,16.5,0,21.6
		C295.5,289.7,307.6,310.8,316.3,317.6z"/>
	<path class="st0" d="M254.2,148.5c-0.4,5.4-0.3,9.3,7.8,10.2c7.7,0.8,8.3-4.9,8.9-10c4.1-31.5,12.6-93.5,19.3-141.6
		c-8.1-0.8-16.4-1.2-24.7-1.2c-2.8,0-5.6,0-8.4,0.1C256.7,58.1,255.8,124.1,254.2,148.5z"/>
	<path class="st0" d="M288.1,162.4c6.6,2,8.7,0,11.3-4.6c1.4-2.6,40-76.6,68.3-131.1c-11.3-4.8-22.9-8.8-34.9-12
		c-15.7,45.3-31.2,90.7-46.8,136C284.6,154.6,282.6,160.8,288.1,162.4z"/>
	<path class="st0" d="M313.5,161.9c-2.3,3-3,3.9,0,4.8c13.8,4,13.8,4,17.8,5.3c54.1,17.6,87,74.5,74.9,130.3
		c-1.7,8,0.5,14.2,4.1,20.7c13.5,24.2,26.3,48.8,34.7,75.3c4.6,14.6,8.8,29.3,10,46.1c0.1,0.8,0,1.4-0.2,2.1
		c44.4-46.8,71.6-110,71.6-179.6c0-95-50.7-178.1-126.6-223.7C375.6,77.5,337.2,131.4,313.5,161.9z"/>
	<path class="st0" d="M99,461.8c-4.7-103.5,19.7-197.2,91.2-277.7c0.1-0.1,0.7-1,0.6-1.9s-0.9-1.8-1-1.9c-1.9-1.7-3.3-3-5.5-4.7
		c-19.7-14.8-64.7-55.2-104.7-91.7c-46.4,47.1-75,111.7-75,183c0,80.9,36.8,153.2,94.6,201.1C99.2,465.9,99.1,463.9,99,461.8z"/>
	<path class="st0" d="M227.1,156.2c0.9,1.7,3.3,4.5,10.5,2.6c1.7-0.5,2.8-1.2,3.5-2.1c1.7-2.5-9.6-74.2-21.8-146.6
		c-16,2.9-31.4,7.2-46.2,12.8C194.6,78,221,145.2,227.1,156.2z"/>
	<path class="st0" d="M445.5,448c-23.3-31.2-52.5-52.1-83.9-70.4c-5.7-3.3-10.2-4.6-17.2-2.1c-44.8,16.2-84.2,5.8-118.1-26.9
		c-7.6-7.4-11.4-9.2-14.5-8.6c-3.1,0.5-5.4,3.3-10.1,13c-23.7,44.5-19.3,100.6,0.6,167c20.3,5,41.5,7.7,63.3,7.7
		c72.9,0,138.8-29.9,186.1-78C449.6,450.6,447.1,450.1,445.5,448z"/>
	<path class="st0" d="M198.4,165.8c1.2,1.4,6.5,6.9,11.5,3c5.7-4.4,2.2-10.2,1-12c-0.3-0.5-0.6-0.9-0.9-1.4L140.3,37.9
		c-11.7,6.4-22.8,13.7-33.3,21.7c33.2,40,71.5,85.5,90.6,105.4C197.9,165.3,198.2,165.5,198.4,165.8z"/>
</g>
</svg>
