<?xml version="1.0" encoding="utf-8"?>
<!-- Generator: $$$/GeneralStr/196=Adobe Illustrator 27.6.0, SVG Export Plug-In . SVG Version: 6.00 Build 0)  -->
<svg version="1.1" id="Ebene_1" xmlns="http://www.w3.org/2000/svg" xmlns:xlink="http://www.w3.org/1999/xlink" x="0px" y="0px"
	 viewBox="0 0 1920 1080" style="enable-background:new 0 0 1920 1080;" xml:space="preserve">
<style type="text/css">
	.st0{fill:#040B1A;}
</style>
<g>
	<g transform="translate(502.355429, 451.745883)">
		<g>
			<path class="st0" d="M246.9,154.6c-7.5,0-14.1-1.6-19.8-4.8c-5.6-3.2-10.7-8.2-15.3-15.2v16h-30V-9h30.6v56.4
				c3.8-6.1,8.7-10.7,14.6-13.9c5.9-3.2,12.6-4.8,20.2-4.8c9.3,0,17.7,2.7,25.1,8c7.4,5.3,13.1,12.8,17.2,22.5
				c4.1,9.7,6.1,20.7,6.1,33c0,12.3-2,23.2-6.1,32.6c-4.1,9.5-9.8,16.8-17.2,22C265,152,256.5,154.6,246.9,154.6z M238.2,127.5
				c8.4,0,14.9-3.1,19.4-9.3c4.5-6.2,6.8-15.3,6.8-27.3c0-10.8-2.3-19.3-6.9-25.5c-4.6-6.2-10.8-9.3-18.6-9.3
				c-8.4,0-14.9,3-19.5,9.1c-4.6,6.1-6.9,14.6-6.9,25.7c0,12,2.2,21.1,6.5,27.3C223.4,124.4,229.8,127.5,238.2,127.5z"/>
		</g>
	</g>
</g>
<g>
	<g transform="translate(597.530892, 451.745883)">
		<g>
			<path class="st0" d="M214.1-9h31.5v159.5h-31.5V-9z"/>
		</g>
	</g>
</g>
<g>
	<g transform="translate(636.465549, 451.745883)">
		<g>
			<path class="st0" d="M255.4,154.8c-11.4,0-20.2-3.2-26.4-9.8c-6.2-6.5-9.3-15.8-9.3-27.8c0-11.1,3.1-19.5,9.3-25.4
				c6.2-5.8,16.4-9.9,30.6-12.1l12.6-1.8c13.5-1.5,20.2-5.3,20.2-11.5c0-4.7-1.5-8.1-4.4-10.2c-3-2.1-7.9-3.1-14.9-3.1
				c-6.4,0-11.2,1.3-14.6,3.8c-3.4,2.5-5.1,6.1-5.1,10.9v1.8h-29.5v-2.2c0-12.1,4.2-21.6,12.8-28.5s20.3-10.3,35.4-10.3
				c16.4,0,29,2.8,37.8,8.5c8.8,5.7,13.2,13.9,13.2,24.8v67c0,4.7,0.5,8.4,1.5,10.9c1,2.5,2.7,4.4,5.1,5.5v5.3h-32.8
				c-2.2-4.6-3.4-9.5-3.6-14.6c-4,6.2-9.2,10.9-15.6,14.1C271.3,153.2,263.9,154.8,255.4,154.8z M265.4,130.6
				c8.6,0,15.3-2.4,20.2-7.2c4.9-4.8,7.3-11.3,7.3-19.6V92.7c-3.6,1.6-9.3,3.4-17.3,5.3c-5.3,1.2-8.9,2.1-10.9,2.7
				c-5.5,1.6-9.3,3.6-11.5,6c-2.2,2.4-3.3,5.6-3.3,9.8c0,4.3,1.4,7.7,4.2,10.3C256.9,129.3,260.7,130.6,265.4,130.6z"/>
		</g>
	</g>
</g>
<g>
	<g transform="translate(723.154966, 451.745883)">
		<g>
			<path class="st0" d="M293.2,153.7c-25.9,0-38.8-13.5-38.8-40.6V32.7h31.5V104c0,8.4,1.4,14.4,4.2,18c2.8,3.6,7.5,5.3,14,5.3
				c7.4,0,13.3-2.2,17.6-6.6c4.4-4.4,6.6-10.5,6.6-18.2V32.7h31.5v117.8h-30.8v-14C320.2,148,308.3,153.7,293.2,153.7z"/>
		</g>
	</g>
</g>
<g>
	<g transform="translate(815.668166, 451.745883)">
		<g>
			<path class="st0" d="M335.1,154.6c-11.2,0-21.1-2.6-29.4-7.8c-8.4-5.2-14.8-12.6-19.3-22.2c-4.5-9.6-6.8-20.9-6.8-33.7
				c0-12.7,2.2-23.8,6.6-33.2c4.4-9.4,10.8-16.6,19.1-21.6c8.3-5,18.1-7.5,29.3-7.5c18.1,0,32,5.5,41.8,16.4
				c9.8,10.9,14.8,26.6,14.8,46.8v4.9c0,1.5-0.1,2.6-0.2,3.3h-78.8c0.9,18.6,9,28,24.4,28c5.3,0,9.7-1.1,13.2-3.2
				c3.5-2.2,6.2-5.4,8.3-9.9h31.5c-3.3,12.4-9.7,22.2-19.3,29.2C360.8,151.1,349,154.6,335.1,154.6z M358.7,79.4
				c-0.8-16.3-8.5-24.4-23.3-24.4c-6.8,0-12.2,2.1-16.1,6.2c-3.9,4.1-6.2,10.2-7,18.2H358.7z"/>
		</g>
	</g>
</g>
<g>
	<g transform="translate(903.688754, 451.745883)">
		<g>
			<path class="st0" d="M315,32.7h29.3V53c4.2-8.1,9-14.1,14.4-17.9c5.5-3.8,12-5.7,19.5-5.7h2.9c0.4,0.1,1,0.2,1.8,0.2v32h-10.4
				c-8.6,0-15.1,2.3-19.4,6.8c-4.4,4.5-6.5,11.1-6.5,19.9v62.4H315V32.7z"/>
		</g>
	</g>
</g>
<g>
	<g transform="translate(960.760231, 451.745883)">
		<g>
			<path class="st0" d="M334.7,32.7h30v16c4.6-6.9,9.7-12,15.3-15.2c5.6-3.2,12.2-4.8,19.8-4.8c9.6,0,18.1,2.6,25.5,7.8
				c7.4,5.2,13.1,12.5,17.2,22c4.1,9.5,6.1,20.3,6.1,32.6c0,12.3-2,23.3-6.1,33c-4.1,9.7-9.8,17.2-17.2,22.5c-7.4,5.3-15.7,8-25.1,8
				c-7.5,0-14.3-1.6-20.2-4.8c-5.9-3.2-10.8-7.8-14.6-13.9v61.9h-30.6V32.7z M391.7,127.3c7.8,0,14-3.1,18.6-9.3
				c4.6-6.2,6.9-14.7,6.9-25.5c0-11.8-2.3-20.9-6.8-27.2c-4.5-6.3-11-9.4-19.4-9.4c-8.4,0-14.8,3.1-19.2,9.3
				c-4.4,6.2-6.5,15.3-6.5,27.3c0,11.1,2.3,19.7,6.9,25.8C376.8,124.3,383.3,127.3,391.7,127.3z"/>
		</g>
	</g>
</g>
<g>
	<g transform="translate(1055.935684, 451.745883)">
		<g>
			<path class="st0" d="M371.3,54.9h-16.9V32.7h16.9V21.9c0-10.9,2.8-19,8.5-24.2c5.7-5.2,14.6-7.8,26.7-7.8
				c6.4,0,11.4,0.2,15.1,0.7v25.1h-8.2c-4.7,0-7.8,0.6-9.3,1.8c-1.5,1.2-2.2,3.5-2.2,7.1v8.2h19.8v22.2h-19.5v95.6h-30.8V54.9z"/>
		</g>
	</g>
</g>
<g>
	<g transform="translate(1103.023611, 451.745883)">
		<g>
			<path class="st0" d="M410.9,154.8c-11.4,0-20.2-3.2-26.4-9.8c-6.2-6.5-9.3-15.8-9.3-27.8c0-11.1,3.1-19.5,9.3-25.4
				c6.2-5.8,16.4-9.9,30.6-12.1l12.6-1.8c13.5-1.5,20.2-5.3,20.2-11.5c0-4.7-1.5-8.1-4.4-10.2c-3-2.1-7.9-3.1-14.9-3.1
				c-6.4,0-11.2,1.3-14.6,3.8c-3.4,2.5-5.1,6.1-5.1,10.9v1.8h-29.5v-2.2c0-12.1,4.2-21.6,12.8-28.5s20.3-10.3,35.4-10.3
				c16.4,0,29,2.8,37.8,8.5c8.8,5.7,13.2,13.9,13.2,24.8v67c0,4.7,0.5,8.4,1.5,10.9c1,2.5,2.7,4.4,5.1,5.5v5.3h-32.8
				c-2.2-4.6-3.4-9.5-3.6-14.6c-4,6.2-9.2,10.9-15.6,14.1C426.8,153.2,419.4,154.8,410.9,154.8z M420.9,130.6
				c8.6,0,15.3-2.4,20.2-7.2c4.9-4.8,7.3-11.3,7.3-19.6V92.7c-3.6,1.6-9.3,3.4-17.3,5.3c-5.3,1.2-8.9,2.1-10.9,2.7
				c-5.5,1.6-9.3,3.6-11.5,6c-2.2,2.4-3.3,5.6-3.3,9.8c0,4.3,1.4,7.7,4.2,10.3C412.4,129.3,416.2,130.6,420.9,130.6z"/>
		</g>
	</g>
</g>
<g>
	<g transform="translate(1189.713051, 451.745883)">
		<g>
			<path class="st0" d="M448.7,153.7c-25.9,0-38.8-13.5-38.8-40.6V32.7h31.5V104c0,8.4,1.4,14.4,4.2,18c2.8,3.6,7.5,5.3,14,5.3
				c7.4,0,13.3-2.2,17.6-6.6c4.4-4.4,6.6-10.5,6.6-18.2V32.7h31.5v117.8h-30.8v-14C475.7,148,463.8,153.7,448.7,153.7z"/>
		</g>
	</g>
</g>
<g>
	<g transform="translate(508.236533, 534.060565)">
		<g>
			<path class="st0" d="M175.3,124.7h16.1c4.3,0,7.6,0.2,9.8,0.6c2.2,0.4,4.1,1.2,5.8,2.3c3.3,2.1,5.8,5.1,7.5,9.1
				c1.7,4,2.6,8.9,2.6,14.5c0,6.1-0.9,11.2-2.8,15.3s-4.7,7.2-8.4,9.2c-1.5,0.8-3.4,1.4-5.7,1.8c-2.3,0.3-5.7,0.5-10.2,0.5h-14.7
				V124.7z M190.5,173.6c4.1,0,7.1-0.1,8.9-0.4c1.8-0.3,3.3-0.8,4.6-1.6c2.7-1.6,4.7-4.1,6-7.4c1.3-3.3,2-7.6,2-12.8
				c0-9.9-2.6-16.6-7.6-19.9c-1.2-0.8-2.8-1.5-4.7-1.9c-1.8-0.3-5-0.5-9.6-0.5h-9.8v44.5H190.5z"/>
		</g>
	</g>
</g>
<g>
	<g transform="translate(546.142101, 534.060565)">
		<g>
			<path class="st0" d="M197.8,179c-3.9,0-7-1-9.3-3c-2.3-2-3.4-4.7-3.4-8.1c0-2.2,0.5-4.2,1.5-5.8c1-1.6,2.6-2.9,4.6-3.9
				c2.4-1.1,6.2-1.8,11.5-2.1l2.4-0.2l1.2-0.2c3.7-0.7,5.5-2.3,5.5-4.7c0-3-0.7-5.2-2.2-6.4c-1.5-1.3-3.9-1.9-7.3-1.9
				c-3.5,0-6.1,0.7-7.9,2.1c-1.8,1.4-2.8,3.6-3,6.4H187c0.1-3.9,1.5-6.9,4.2-9.1c2.7-2.2,6.4-3.3,11-3.3c4.6,0,8.1,1,10.5,3
				c2.4,2,3.6,4.9,3.6,8.7v21c0,1.5,0.2,2.5,0.6,2.9c0.4,0.4,1.1,0.6,2.2,0.6h0.9c0.3,0,0.6,0,0.7-0.1v3.3c-1.2,0.2-2.3,0.4-3.2,0.4
				c-3.7,0-5.5-1.8-5.5-5.3v-0.6C208,176.8,203.3,179,197.8,179z M198.4,175c4.2,0,7.4-1,9.8-3.1c2.4-2.1,3.6-5,3.6-8.6v-5.3
				c-1.3,0.5-2.8,0.8-4.5,1c-1.6,0.2-4.6,0.5-9,0.8c-2.8,0.7-5,1.8-6.4,3.2c-1.5,1.4-2.2,3-2.2,5c0,2.2,0.8,3.9,2.3,5.2
				C193.6,174.3,195.7,175,198.4,175z"/>
		</g>
	</g>
</g>
<g>
	<g transform="translate(575.099245, 534.060565)">
		<g>
			<path class="st0" d="M210,179.1c-4.4,0-8-1.2-10.8-3.6c-2.7-2.4-4.1-5.5-4.2-9.5h4.5c0.1,2.7,1.1,4.8,3,6.5
				c1.9,1.7,4.3,2.5,7.3,2.5c3.2,0,5.7-0.6,7.6-1.9c1.9-1.3,2.8-3,2.8-5.2c0-3.1-3.2-5.4-9.7-7l-1.6-0.4c-3.4-0.8-6-1.7-7.9-2.7
				c-1.9-0.9-3.2-2.1-4-3.3c-0.8-1.3-1.1-2.9-1.1-4.9c0-3.3,1.2-6,3.7-8c2.4-2.1,5.6-3.1,9.6-3.1c4.3,0,7.7,1.1,10.3,3.2
				c2.6,2.2,4,5.2,4.2,9h-4.5c-0.2-2.6-1.2-4.6-2.9-6.1s-4.1-2.2-7.1-2.2c-2.6,0-4.7,0.6-6.3,1.8s-2.4,2.8-2.4,4.8
				c0,1.7,0.9,3.1,2.6,4.3c1.7,1.2,4.4,2.3,8,3.2l2.1,0.5c3,0.8,5.4,1.6,7,2.5c1.7,0.9,2.9,2.1,3.6,3.4c0.7,1.3,1.1,3,1.1,4.9
				c0,2.2-0.6,4.1-1.8,5.8c-1.2,1.7-2.9,3-5.1,3.9C215.5,178.6,212.9,179.1,210,179.1z"/>
		</g>
	</g>
</g>
<g>
	<g transform="translate(601.555269, 534.060565)">
	</g>
</g>
<g>
	<g transform="translate(615.505704, 534.060565)">
		<g>
			<path class="st0" d="M225,124.7h5.9l20.2,53.3H246l-6.1-16.4h-23.9l-6.1,16.4h-5.1L225,124.7z M238.3,157.3l-10.4-27.4
				l-10.3,27.4H238.3z"/>
		</g>
	</g>
</g>
<g>
	<g transform="translate(648.909264, 534.060565)">
		<g>
			<path class="st0" d="M234.2,179.1c-8.7,0-13-4.5-13-13.6v-25.9h4.5v24.8c0,3.9,0.7,6.6,2.1,8.2c1.4,1.6,3.9,2.4,7.3,2.4
				c3.7,0,6.6-1.1,8.7-3.4s3.2-5.3,3.2-9.3v-22.8h4.5V178h-4.3v-6.1c-1.5,2.4-3.3,4.2-5.4,5.4C239.6,178.5,237.1,179.1,234.2,179.1z
				"/>
		</g>
	</g>
</g>
<g>
	<g transform="translate(678.144295, 534.060565)">
		<g>
			<path class="st0" d="M245.8,193.8c-4.5,0-8.1-1-10.9-3c-2.8-2-4.3-4.8-4.5-8.2h4.6c0.2,2.3,1.3,4.1,3.1,5.4
				c1.9,1.3,4.4,1.9,7.6,1.9c4.6,0,8.1-1.2,10.4-3.5c2.3-2.3,3.5-5.7,3.5-10.2v-4.8c-3.2,5.1-7.6,7.6-13.4,7.6
				c-5.3,0-9.5-1.8-12.5-5.4c-3-3.6-4.6-8.6-4.6-14.8c0-4.1,0.7-7.7,2.1-10.7c1.4-3.1,3.4-5.4,5.9-7c2.6-1.6,5.6-2.5,9-2.5
				c5.9,0,10.3,2.6,13.3,7.6v-6.7h4.5V176c0,5.9-1.5,10.3-4.6,13.3C256.3,192.3,251.8,193.8,245.8,193.8z M246.9,175.2
				c4.1,0,7.3-1.4,9.6-4.3c2.3-2.9,3.5-6.9,3.5-12.1c0-5.2-1.1-9.2-3.4-12c-2.3-2.8-5.5-4.3-9.6-4.3c-4.2,0-7.4,1.4-9.6,4.2
				c-2.2,2.8-3.4,6.8-3.4,12.1c0,5.1,1.1,9.1,3.4,12C239.6,173.7,242.8,175.2,246.9,175.2z"/>
		</g>
	</g>
</g>
<g>
	<g transform="translate(709.491397, 534.060565)">
		<g>
			<path class="st0" d="M256.3,179.1c-5.2,0-9.3-1.8-12.3-5.3c-3-3.5-4.4-8.5-4.4-14.8c0-6.4,1.5-11.4,4.5-15
				c3-3.6,7.1-5.4,12.4-5.4c5.2,0,9.2,1.7,12.1,5.2c2.9,3.4,4.3,8.2,4.3,14.4v1.5h-28.8v0.2c0,4.7,1.1,8.4,3.4,11.2
				c2.3,2.8,5.3,4.2,9.1,4.2c3,0,5.5-0.8,7.6-2.4c2-1.6,3.3-3.8,3.7-6.7h4.5c-0.5,3.9-2.2,7-5.1,9.4
				C264.3,177.9,260.7,179.1,256.3,179.1z M268.2,156.1c-0.2-4.2-1.3-7.6-3.5-10c-2.1-2.4-4.9-3.6-8.4-3.6c-3.5,0-6.4,1.2-8.6,3.7
				c-2.2,2.5-3.4,5.8-3.6,9.9H268.2z"/>
		</g>
	</g>
</g>
<g>
	<g transform="translate(738.115063, 534.060565)">
	</g>
</g>
<g>
	<g transform="translate(752.065498, 534.060565)">
		<g>
			<path class="st0" d="M257.8,143.2h-5.6v-3.6h5.6v-7c0-2.9,0.7-5,2.2-6.3c1.5-1.3,3.8-2,6.9-2c0.6,0,1.4,0.1,2.3,0.2v4
				c-0.9-0.1-1.7-0.1-2.4-0.1c-1.7,0-2.9,0.3-3.5,1c-0.7,0.7-1,1.9-1,3.6v6.6h7v3.6h-7V178h-4.4V143.2z"/>
		</g>
	</g>
</g>
<g>
	<g transform="translate(766.015932, 534.060565)">
		<g>
			<path class="st0" d="M273.2,179.1c-8.7,0-13-4.5-13-13.6v-25.9h4.5v24.8c0,3.9,0.7,6.6,2.1,8.2c1.4,1.6,3.9,2.4,7.3,2.4
				c3.7,0,6.6-1.1,8.7-3.4s3.2-5.3,3.2-9.3v-22.8h4.5V178h-4.3v-6.1c-1.5,2.4-3.3,4.2-5.4,5.4C278.6,178.5,276.1,179.1,273.2,179.1z
				 M267,125.9h5.1v5.9H267V125.9z M278.7,125.9h5.1v5.9h-5.1V125.9z"/>
		</g>
	</g>
</g>
<g>
	<g transform="translate(795.250963, 534.060565)">
		<g>
			<path class="st0" d="M270,139.5h4.3v6.8c2.2-5.1,6.1-7.7,11.9-7.7h0.5v4.7h-0.6c-7.7,0-11.5,4.5-11.5,13.6V178H270V139.5z"/>
		</g>
	</g>
</g>
<g>
	<g transform="translate(811.480197, 534.060565)">
	</g>
</g>
<g>
	<g transform="translate(825.430632, 534.060565)">
		<g>
			<path class="st0" d="M295,124.7h5.9l20.2,53.3H316l-6.1-16.4H286l-6.1,16.4h-5.1L295,124.7z M308.3,157.3l-10.4-27.4l-10.3,27.4
				H308.3z"/>
		</g>
	</g>
</g>
<g>
	<g transform="translate(858.834192, 534.060565)">
		<g>
			<path class="st0" d="M304.1,179.1c-8.7,0-13-4.5-13-13.6v-25.9h4.5v24.8c0,3.9,0.7,6.6,2.1,8.2c1.4,1.6,3.9,2.4,7.3,2.4
				c3.7,0,6.6-1.1,8.7-3.4s3.2-5.3,3.2-9.3v-22.8h4.5V178H317v-6.1c-1.5,2.4-3.3,4.2-5.4,5.4C309.6,178.5,307,179.1,304.1,179.1z"/>
		</g>
	</g>
</g>
<g>
	<g transform="translate(888.069223, 534.060565)">
		<g>
			<path class="st0" d="M316.6,178.8c-0.9,0-2.2-0.1-3.9-0.4v-3.8c0.8,0.1,1.6,0.1,2.4,0.1c3.5,0,6.2-1,8-3.1
				c1.9-2.1,2.8-5.1,2.8-9.1c0-8.4-4.5-12.6-13.5-12.6v-3.4h1c3.5,0,6-0.7,7.6-2.2c1.6-1.5,2.4-3.8,2.4-7c0-3.2-0.8-5.6-2.3-7.2
				c-1.5-1.6-3.8-2.5-6.8-2.5c-3.2,0-5.5,0.8-6.9,2.5c-1.4,1.6-2,4.4-2,8.4V178H301v-40.5c0-9,4.4-13.5,13.4-13.5
				c4.3,0,7.6,1.2,10,3.6c2.4,2.4,3.6,5.7,3.6,9.9c0,5.2-1.9,8.7-5.6,10.5c2.8,1.3,4.8,3.1,6.2,5.5c1.4,2.4,2,5.3,2,8.8
				c0,5-1.3,9.1-3.8,12C324.2,177.4,320.8,178.8,316.6,178.8z"/>
		</g>
	</g>
</g>
<g>
	<g transform="translate(915.303362, 534.060565)">
		<g>
			<path class="st0" d="M324.9,179.1c-5.2,0-9.3-1.8-12.3-5.3c-3-3.5-4.4-8.5-4.4-14.8c0-6.4,1.5-11.4,4.5-15
				c3-3.6,7.1-5.4,12.4-5.4c5.2,0,9.2,1.7,12.1,5.2c2.9,3.4,4.3,8.2,4.3,14.4v1.5h-28.8v0.2c0,4.7,1.1,8.4,3.4,11.2
				c2.3,2.8,5.3,4.2,9.1,4.2c3,0,5.5-0.8,7.6-2.4c2-1.6,3.3-3.8,3.7-6.7h4.5c-0.5,3.9-2.2,7-5.1,9.4
				C332.9,177.9,329.3,179.1,324.9,179.1z M336.8,156.1c-0.2-4.2-1.3-7.6-3.5-10c-2.1-2.4-4.9-3.6-8.4-3.6c-3.5,0-6.4,1.2-8.6,3.7
				c-2.2,2.5-3.4,5.8-3.6,9.9H336.8z"/>
		</g>
	</g>
</g>
<g>
	<g transform="translate(943.927028, 534.060565)">
		<g>
			<path class="st0" d="M319.6,139.5h4.3v6.8c2.2-5.1,6.1-7.7,11.9-7.7h0.5v4.7h-0.6c-7.7,0-11.5,4.5-11.5,13.6V178h-4.6V139.5z"/>
		</g>
	</g>
</g>
<g>
	<g transform="translate(960.156285, 534.060565)">
		<g>
			<path class="st0" d="M339.8,193.8c-4.5,0-8.1-1-10.9-3c-2.8-2-4.3-4.8-4.5-8.2h4.6c0.2,2.3,1.3,4.1,3.1,5.4
				c1.9,1.3,4.4,1.9,7.6,1.9c4.6,0,8.1-1.2,10.4-3.5c2.3-2.3,3.5-5.7,3.5-10.2v-4.8c-3.2,5.1-7.6,7.6-13.4,7.6
				c-5.3,0-9.5-1.8-12.5-5.4c-3-3.6-4.6-8.6-4.6-14.8c0-4.1,0.7-7.7,2.1-10.7c1.4-3.1,3.4-5.4,5.9-7c2.6-1.6,5.6-2.5,9-2.5
				c5.9,0,10.3,2.6,13.3,7.6v-6.7h4.5V176c0,5.9-1.5,10.3-4.6,13.3C350.3,192.3,345.8,193.8,339.8,193.8z M340.9,175.2
				c4.1,0,7.3-1.4,9.6-4.3c2.3-2.9,3.5-6.9,3.5-12.1c0-5.2-1.1-9.2-3.4-12c-2.3-2.8-5.5-4.3-9.6-4.3c-4.2,0-7.4,1.4-9.6,4.2
				c-2.2,2.8-3.4,6.8-3.4,12.1c0,5.1,1.1,9.1,3.4,12C333.6,173.7,336.8,175.2,340.9,175.2z"/>
		</g>
	</g>
</g>
<g>
	<g transform="translate(991.503388, 534.060565)">
		<g>
			<path class="st0" d="M350.3,179.1c-5.2,0-9.3-1.8-12.3-5.3c-3-3.5-4.4-8.5-4.4-14.8c0-6.4,1.5-11.4,4.5-15
				c3-3.6,7.1-5.4,12.4-5.4c5.2,0,9.2,1.7,12.1,5.2c2.9,3.4,4.3,8.2,4.3,14.4v1.5h-28.8v0.2c0,4.7,1.1,8.4,3.4,11.2
				c2.3,2.8,5.3,4.2,9.1,4.2c3,0,5.5-0.8,7.6-2.4c2-1.6,3.3-3.8,3.7-6.7h4.5c-0.5,3.9-2.2,7-5.1,9.4
				C358.3,177.9,354.7,179.1,350.3,179.1z M362.2,156.1c-0.2-4.2-1.3-7.6-3.5-10c-2.1-2.4-4.9-3.6-8.4-3.6c-3.5,0-6.4,1.2-8.6,3.7
				c-2.2,2.5-3.4,5.8-3.6,9.9H362.2z"/>
		</g>
	</g>
</g>
<g>
	<g transform="translate(1020.127053, 534.060565)">
		<g>
			<path class="st0" d="M340,139.5h4.5l9.9,32.2l8.8-32.2h5l8.7,32.2l9.9-32.2h4.5L379.3,178h-4.8l-8.9-32.2l-8.8,32.2h-4.7
				L340,139.5z"/>
		</g>
	</g>
</g>
<g>
	<g transform="translate(1057.754735, 534.060565)">
		<g>
			<path class="st0" d="M373.3,179c-5.6,0-9.9-1.8-13-5.2c-3.1-3.5-4.6-8.5-4.6-14.9c0-6.4,1.5-11.4,4.6-14.9
				c3.1-3.5,7.4-5.3,13-5.3c5.6,0,10,1.8,13.1,5.3c3.1,3.5,4.6,8.5,4.6,14.9c0,6.4-1.6,11.4-4.6,14.9
				C383.3,177.2,378.9,179,373.3,179z M373.3,175.1c4.2,0,7.4-1.4,9.6-4.2c2.3-2.8,3.4-6.9,3.4-12.1c0-5.2-1.1-9.2-3.4-12
				c-2.3-2.8-5.5-4.3-9.6-4.3c-4.2,0-7.4,1.4-9.6,4.3c-2.3,2.8-3.4,6.8-3.4,12c0,5.2,1.1,9.2,3.4,12.1
				C365.9,173.7,369.1,175.1,373.3,175.1z M364.9,125.9h5.1v5.9h-5.1V125.9z M376.5,125.9h5.1v5.9h-5.1V125.9z"/>
		</g>
	</g>
</g>
<g>
	<g transform="translate(1087.93463, 534.060565)">
		<g>
			<path class="st0" d="M367.6,124.7h4.5v20.8c3-4.7,7.2-7,12.7-7c2.5,0,4.8,0.5,6.9,1.5c2.1,1,3.6,2.3,4.6,4c0.6,1.1,1,2.2,1.2,3.3
				c0.2,1.5,0.4,3.9,0.4,7.3V178h-4.5v-23.4c0-3.2-0.3-5.7-0.9-7.4c-0.6-1.7-1.6-2.9-2.9-3.6c-1.3-0.7-3.2-1-5.6-1
				c-3.6,0-6.5,1.2-8.6,3.5c-2.1,2.3-3.2,5.4-3.2,9.3V178h-4.5V124.7z"/>
		</g>
	</g>
</g>
<g>
	<g transform="translate(1117.169637, 534.060565)">
		<g>
			<path class="st0" d="M377.3,139.5h4.3v6.2c2.9-4.8,7.2-7.1,12.8-7.1c2.7,0,5,0.5,7,1.4c2,0.9,3.5,2.3,4.6,4c0.6,1,1,2.1,1.2,3.2
				c0.2,1.4,0.4,3.5,0.4,6.3V178h-4.6v-23.9c0-3-0.3-5.3-0.9-7c-0.6-1.7-1.6-2.8-2.9-3.5c-1.3-0.7-3.2-1-5.6-1
				c-3.6,0-6.5,1.1-8.5,3.4c-2.1,2.3-3.1,5.4-3.1,9.3V178h-4.5V139.5z"/>
		</g>
	</g>
</g>
<g>
	<g transform="translate(1146.293507, 534.060565)">
		<g>
			<path class="st0" d="M387.5,124.7h4.4V178h-4.4V124.7z"/>
		</g>
	</g>
</g>
<g>
	<g transform="translate(1156.909095, 534.060565)">
		<g>
			<path class="st0" d="M391.1,124.7h4.4v6.7h-4.4V124.7z M391.1,139.5h4.4V178h-4.4V139.5z"/>
		</g>
	</g>
</g>
<g>
	<g transform="translate(1167.524683, 534.060565)">
		<g>
			<path class="st0" d="M409,179c-5.2,0-9.3-1.8-12.3-5.3c-3-3.6-4.5-8.4-4.5-14.6c0-6.4,1.5-11.4,4.6-15c3.1-3.6,7.2-5.5,12.5-5.5
				c4.3,0,7.8,1.2,10.6,3.6c2.8,2.4,4.3,5.6,4.6,9.5h-4.3c-0.3-2.8-1.5-5-3.5-6.7c-2-1.7-4.5-2.5-7.4-2.5c-3.9,0-6.9,1.4-9.2,4.3
				c-2.2,2.9-3.4,6.8-3.4,11.8c0,5.1,1.1,9.1,3.4,12.1c2.3,3,5.3,4.4,9.2,4.4c3,0,5.5-0.9,7.5-2.8c2-1.9,3.3-4.4,3.7-7.7h4.4
				c-0.4,4.4-2,7.9-4.9,10.4C417.3,177.7,413.6,179,409,179z"/>
		</g>
	</g>
</g>
<g>
	<g transform="translate(1195.37021, 534.060565)">
		<g>
			<path class="st0" d="M403.4,124.7h4.5v20.8c3-4.7,7.2-7,12.7-7c2.5,0,4.8,0.5,6.9,1.5c2.1,1,3.6,2.3,4.6,4c0.6,1.1,1,2.2,1.2,3.3
				c0.2,1.5,0.4,3.9,0.4,7.3V178h-4.5v-23.4c0-3.2-0.3-5.7-0.9-7.4c-0.6-1.7-1.6-2.9-2.9-3.6c-1.3-0.7-3.2-1-5.6-1
				c-3.6,0-6.5,1.2-8.6,3.5c-2.1,2.3-3.2,5.4-3.2,9.3V178h-4.5V124.7z"/>
		</g>
	</g>
</g>
<g>
	<g transform="translate(1224.605263, 534.060565)">
		<g>
			<path class="st0" d="M428,179.1c-5.2,0-9.3-1.8-12.3-5.3c-3-3.5-4.4-8.5-4.4-14.8c0-6.4,1.5-11.4,4.5-15c3-3.6,7.1-5.4,12.4-5.4
				c5.2,0,9.2,1.7,12.1,5.2c2.9,3.4,4.3,8.2,4.3,14.4v1.5h-28.8v0.2c0,4.7,1.1,8.4,3.4,11.2c2.3,2.8,5.3,4.2,9.1,4.2
				c3,0,5.5-0.8,7.6-2.4c2-1.6,3.3-3.8,3.7-6.7h4.5c-0.5,3.9-2.2,7-5.1,9.4C436,177.9,432.4,179.1,428,179.1z M439.9,156.1
				c-0.2-4.2-1.3-7.6-3.5-10c-2.1-2.4-4.9-3.6-8.4-3.6c-3.5,0-6.4,1.2-8.6,3.7c-2.2,2.5-3.4,5.8-3.6,9.9H439.9z"/>
		</g>
	</g>
</g>
<g>
	<g transform="translate(1253.228929, 534.060565)">
		<g>
			<path class="st0" d="M436.1,179.1c-4.4,0-8-1.2-10.8-3.6c-2.7-2.4-4.1-5.5-4.2-9.5h4.5c0.1,2.7,1.1,4.8,3,6.5
				c1.9,1.7,4.3,2.5,7.3,2.5c3.2,0,5.7-0.6,7.6-1.9c1.9-1.3,2.8-3,2.8-5.2c0-3.1-3.2-5.4-9.7-7l-1.6-0.4c-3.4-0.8-6-1.7-7.9-2.7
				c-1.9-0.9-3.2-2.1-4-3.3c-0.8-1.3-1.1-2.9-1.1-4.9c0-3.3,1.2-6,3.7-8c2.4-2.1,5.6-3.1,9.6-3.1c4.3,0,7.7,1.1,10.3,3.2
				c2.6,2.2,4,5.2,4.2,9h-4.5c-0.2-2.6-1.2-4.6-2.9-6.1s-4.1-2.2-7.1-2.2c-2.6,0-4.7,0.6-6.3,1.8c-1.6,1.2-2.4,2.8-2.4,4.8
				c0,1.7,0.9,3.1,2.6,4.3c1.7,1.2,4.4,2.3,8,3.2l2.1,0.5c3,0.8,5.4,1.6,7,2.5c1.7,0.9,2.9,2.1,3.6,3.4c0.7,1.3,1.1,3,1.1,4.9
				c0,2.2-0.6,4.1-1.8,5.8c-1.2,1.7-2.9,3-5.1,3.9C441.5,178.6,439,179.1,436.1,179.1z"/>
		</g>
	</g>
</g>
<path class="st0" d="M259.2,320.2"/>
<g>
	<path class="st0" d="M382.7,594c10.7,8.4,15.6,11.3,23.4,11.3c0.2,0-1-11.3-1.1-11.7c-1.3-14.1-7.5-28.2-7.5-28.2
		c-2-4.1-6-13.2-6.8-14.6c-3.7-6.7-7.6-14.4-15.1-20.7c-5.7-4.8-14.2-9.3-15.3-2.3c-0.5,3.6-0.5,16.5,0,21.6
		C362,566.2,374,587.2,382.7,594z"/>
	<path class="st0" d="M320.6,424.9c-0.4,5.4-0.3,9.3,7.8,10.2c7.7,0.8,8.3-4.9,8.9-10c4.1-31.5,12.6-93.5,19.3-141.6
		c-8.1-0.8-16.4-1.2-24.7-1.2c-2.8,0-5.6,0-8.4,0.1C323.2,334.5,322.2,400.5,320.6,424.9z"/>
	<path class="st0" d="M354.5,438.8c6.6,2,8.7,0,11.3-4.6c1.4-2.6,40-76.6,68.3-131.1c-11.3-4.8-22.9-8.8-34.9-12
		c-15.7,45.3-31.2,90.7-46.8,136C351.1,431,349.1,437.2,354.5,438.8z"/>
	<path class="st0" d="M380,438.3c-2.3,3-3,3.9,0,4.8c13.8,4,13.8,4,17.8,5.3c54.1,17.6,87,74.5,74.9,130.3c-1.7,8,0.5,14.2,4.1,20.7
		c13.5,24.2,26.3,48.8,34.7,75.3c4.6,14.6,8.8,29.3,10,46.1c0.1,0.8,0,1.4-0.2,2.1c44.4-46.8,71.6-110,71.6-179.6
		c0-95-50.7-178.1-126.6-223.7C442,354,403.6,407.8,380,438.3z"/>
	<path class="st0" d="M165.4,738.2c-4.7-103.5,19.7-197.2,91.2-277.7c0.1-0.1,0.7-1,0.6-1.9c-0.1-0.9-0.9-1.8-1-1.9
		c-1.9-1.7-3.3-3-5.5-4.7c-19.6-14.7-64.6-55.1-104.6-91.7c-46.4,47.1-74.9,111.7-74.9,183c0,80.9,36.8,153.2,94.6,201.1
		C165.6,742.3,165.5,740.3,165.4,738.2z"/>
	<path class="st0" d="M293.5,432.6c0.9,1.7,3.3,4.5,10.5,2.6c1.7-0.5,2.8-1.2,3.5-2.1c1.7-2.5-9.6-74.2-21.8-146.6
		c-16,2.9-31.4,7.2-46.2,12.8C261,354.4,287.5,421.6,293.5,432.6z"/>
	<path class="st0" d="M511.9,724.4c-23.3-31.2-52.5-52.1-83.9-70.4c-5.7-3.3-10.2-4.6-17.2-2.1c-44.8,16.2-84.2,5.8-118.1-26.9
		c-7.6-7.4-11.4-9.2-14.5-8.6c-3.1,0.5-5.4,3.3-10.1,13c-23.7,44.5-19.3,100.6,0.6,167c20.3,5,41.5,7.7,63.3,7.7
		c72.9,0,138.8-29.9,186.1-78C516,727,513.5,726.5,511.9,724.4z"/>
	<path class="st0" d="M264.8,442.2c1.2,1.4,6.5,6.9,11.5,3c5.7-4.4,2.2-10.2,1-12c-0.3-0.5-0.6-0.9-0.9-1.4l-69.6-117.5
		c-11.7,6.4-22.8,13.7-33.3,21.7c33.2,40,71.5,85.5,90.6,105.4C264.4,441.7,264.6,441.9,264.8,442.2z"/>
</g>
</svg>
