<?xml version="1.0" encoding="UTF-8"?><svg id="Ebene_2" xmlns="http://www.w3.org/2000/svg" viewBox="0 0 4000 4000"><defs><style>.cls-1{fill:#e2e2e2;}</style></defs><g id="Ebene_1-2"><path class="cls-1" d="m2388.74,2388.65c81.78,64.15,119.35,86.93,179.2,86.92,1.84,0-7.59-86.88-8.05-89.5-10.04-108.06-57.63-215.81-57.63-215.81-15.4-31.7-46.05-101.09-52.17-112.14-28.6-51.62-58.38-110.27-115.78-159.01-43.33-36.79-109.21-71.36-116.92-17.62-4,27.88-3.54,126.43.24,165.8,12.27,127.85,104.59,289.17,171.12,341.36Z"/><path class="cls-1" d="m1912.78,1092.14c-2.74,41.15-2.05,71.54,59.9,78.26,59.25,6.43,63.53-37.51,68.52-76.31,31.12-241.69,96.73-716.41,148.14-1085.24-62.33-5.85-125.48-8.85-189.34-8.85-21.44,0-42.8.34-64.08,1.01-3.7,398.06-10.69,904.15-23.13,1091.13Z"/><path class="cls-1" d="m2172.87,1199.25c50.21,14.96,66.61.37,86.4-35.13,11.04-19.79,306.31-587.28,523.61-1005.08-86.34-36.76-175.79-67.63-267.85-92.09-120.68,347.2-238.9,695.26-358.61,1042.8-10.08,29.26-25.46,77.01,16.44,89.5Z"/><path class="cls-1" d="m2367.78,1195.24c-17.55,22.68-23.33,29.94.06,36.71q105.45,30.52,136.16,40.53c414.83,135.26,667.2,571.32,574.47,998.62-13.33,61.45,3.69,109.1,31.56,158.83,103.86,185.32,201.61,373.79,266.06,577.01,35.44,111.74,67.58,224.52,76.71,353.57.41,5.77-.29,11.11-1.84,15.94,340.26-358.56,549.03-843.13,549.03-1376.47,0-727.92-388.88-1365-970.21-1714.85-186.27,263.36-480.78,675.86-662.01,910.09Z"/><path class="cls-1" d="m723.13,3494.18c-36.24-793.46,151.31-1511.37,698.8-2128.52.67-.76,5.25-7.9,4.52-14.92-.72-7.02-6.74-13.9-7.66-14.73-14.76-13.32-25.13-23.15-42.52-36.24-149.87-112.81-495.45-422.65-801.77-702.61C219.22,958.16,0,1453.48,0,2000c0,620.14,282.25,1174.36,725.29,1541.2-.72-15.55-1.44-31.22-2.16-47.02Z"/><path class="cls-1" d="m1705.3,1151.68c7.02,12.71,25.18,34.62,80.64,19.85,13.31-3.55,21.66-9.15,26.66-16.31,13.29-19.05-73.62-568.54-167.18-1123.88-122.32,21.88-240.78,54.89-354.3,97.93,164.92,422.36,367.47,937.76,414.18,1022.41Z"/><path class="cls-1" d="m3379.38,3388.14c-178.62-239.26-402.25-399.12-643.25-539.47-43.36-25.25-78.21-35.5-132.22-16.04-343.69,123.88-645.23,44.12-905.19-205.96-58.62-56.39-87.35-70.15-110.83-66.18-23.47,3.97-41.69,25.66-77.4,99.77-181.96,340.85-148.24,771.3,4.47,1280.51,155.29,38.68,317.76,59.22,485.03,59.22,558.57,0,1063.65-228.99,1426.51-598.2-15.7,5.99-34.87,2.76-47.13-13.66Z"/><path class="cls-1" d="m1485.11,1225.06c9.32,10.84,49.69,53.2,88.39,23,43.6-34.02,16.97-78.46,7.29-91.87-2.51-3.48-4.9-7.05-7.09-10.75L1040.22,244.92c-89.43,49.01-174.71,104.65-255.17,166.27,254.13,306.4,548.45,655.42,694.67,807.93,1.85,1.93,3.64,3.91,5.38,5.94Z"/></g></svg>